<svg
    xmlns="http://www.w3.org/2000/svg"
    id="svg4793"
    viewBox="0 0 214.17 204.63"
    version="1.1"
  >
    <path
        id="path5576"
        d="m408.63 615.58c-4.214 13.81 36.571 33.695 41.28 47.345 4.7084 13.65-15.141 54.385-3.3089 62.66l13.413 11.961c0.1695 0.14686 0.31779 0.30916 0.50275 0.43882 11.832 8.275 43.314-24.321 57.751-24.58 14.436-0.26131 47.041 31.219 58.567 22.523s-9.7714-48.714-5.5575-62.525c4.2135-13.81 44.225-35.152 39.517-48.801-0.35778-1.0361-0.95763-1.9513-1.7434-2.7557l-14.632-13.145c-10.599-8.9005-48-3.0948-58.692-10.571-11.832-8.2756-19.741-52.88-34.178-52.62-14.437 0.25983-20.739 45.137-32.265 53.833s-56.439 2.4272-60.653 16.238zm90.941-56.087 25.024 51.706 57.627 4.4629-41.483 39.785 13.592 56.188-50.684-27.14-49.219 30.267 10.181-56.571-44.016-37.454 56.961-7.8352z"
        style="color:#000000;fill:#4e5562"
    />
</svg>
